<svg width="391" height="331" viewBox="0 0 391 331" fill="none" xmlns="http://www.w3.org/2000/svg">
<path d="M376.926 270.847H14.0736C6.31354 270.847 0 264.537 0 256.781V213.131H391V256.781C391 264.537 384.687 270.847 376.926 270.847Z" fill="#E6E6E6"/>
<path d="M242.462 263.546H149.93V329.606H242.462V263.546Z" fill="#E6E6E6"/>
<path d="M248.027 321.261H144.364V329.606H248.027V321.261Z" fill="#E6E6E6"/>
<path d="M390.652 231.558H0V9.65302C0 4.33045 4.33268 0 9.658 0H380.994C386.319 0 390.652 4.33045 390.652 9.65302V231.558Z" fill="#3F3D56"/>
<path d="M381.26 10.0829H9.04456V219.389H381.26V10.0829Z" fill="white"/>
<path d="M81.1284 134.835C83.9772 132.482 87.501 132.044 88.9988 133.857C90.4966 135.669 89.4012 139.045 86.551 141.398C85.4254 142.354 84.0871 143.026 82.6482 143.359L70.4516 153.175L65.9646 147.356L78.4647 138.297C79.0633 136.947 79.9766 135.76 81.1284 134.835Z" fill="#FFB6B6"/>
<path d="M10.633 156.984C10.6268 156.55 10.6309 152.763 13.4358 150.369C16.6579 147.62 21.2044 148.733 22.799 149.123C26.4827 150.025 26.7848 151.604 30.2442 153.227C36.7163 156.263 28.607 154.709 32.4581 153.735C33.7911 153.398 52.9688 152.069 57.7424 149.133C67.0266 143.421 73.3525 139.958 73.3525 139.958L77.4879 148.224C77.4879 148.224 71.5082 156.535 63.0921 162.691C54.4592 169.007 50.1427 172.164 43.5829 173.384C43.018 173.489 29.1247 175.86 17.9348 167.504C15.3824 165.599 10.7058 162.106 10.633 156.984Z" fill="#6C63FF"/>
<path d="M23.4612 135.96C31.4174 135.96 37.8672 129.514 37.8672 121.561C37.8672 113.609 31.4174 107.163 23.4612 107.163C15.5049 107.163 9.05514 113.609 9.05514 121.561C9.05514 129.514 15.5049 135.96 23.4612 135.96Z" fill="#FFB6B6"/>
<path d="M136.284 218.297L121.447 203.118L113.789 211.103L124.842 225.657L135.806 226.91L136.284 218.297Z" fill="#FFB6B6"/>
<path d="M51.5683 189.833C52.4361 189.905 55.1937 190.457 57.8295 189.008C59.6283 188.019 60.5508 186.548 60.8624 186.08C64.7281 180.278 79.5652 171.229 92.8812 170.672C95.8967 170.546 97.8816 170.895 99.6857 171.835C102.244 173.168 103.265 175.077 106.511 179.549C108.287 181.996 110.252 184.3 112.049 186.731C122.57 200.962 126.559 202.079 126.151 206.641C125.699 211.703 120.237 216.506 116.607 215.951C115.12 215.724 114.544 214.691 112.558 212.599C106.734 206.466 104.324 207.599 100.178 202.902C95.3366 197.417 95.9703 192.87 93.4446 192.694C91.1024 192.531 90.107 196.411 85.1066 201.564C82.8185 203.922 81.1891 205.004 76.2252 208.446C56.8947 221.85 56.5861 222.792 52.685 223.861C50.9782 224.328 38.864 227.648 34.5486 222.365C27.7955 214.098 43.7492 189.184 51.5683 189.833Z" fill="#2F2E41"/>
<path d="M131.748 221.727C132.839 221.237 134.115 220.665 134.525 219.348C134.803 218.457 134.643 217.358 134.069 216.599C133.407 215.723 132.426 215.608 132.466 215.453C132.526 215.217 134.845 215.309 137.39 216.208C137.87 216.378 140.046 217.173 142.814 219.332C145.031 221.063 144.733 221.409 146.123 222.407C150.392 225.47 154.395 223.056 156.705 225.928C157.596 227.037 157.977 228.61 157.601 229.883C156.848 232.438 153.185 233.318 151.182 233.772C146.36 234.865 142.71 233.973 138.899 233.331C125.938 231.148 118.656 233.136 117.681 230.135C117.497 229.567 117.797 229.615 118.796 225.447C119.782 221.333 119.75 220.203 120.59 219.874C121.855 219.378 122.704 221.633 125.889 222.405C128.712 223.09 131.041 222.044 131.748 221.727Z" fill="#2F2E41"/>
<path d="M109.907 267.952L106.159 247.066L95.3358 249.375L96.3054 267.621L104.673 274.811L109.907 267.952Z" fill="#FFB6B6"/>
<path d="M55.8011 196.854C56.4786 197.4 58.4502 199.405 61.4455 199.685C63.4897 199.876 65.0794 199.177 65.6 198.965C72.0588 196.333 89.4197 197.173 100.751 204.186C103.317 205.774 104.763 207.177 105.728 208.967C107.096 211.506 106.868 213.659 107.042 219.181C107.137 222.202 107.467 225.212 107.589 228.232C108.299 245.912 110.972 249.075 108.072 252.621C104.853 256.556 97.6357 257.464 94.9433 254.968C93.8407 253.946 93.9448 252.767 93.4764 249.922C92.103 241.578 89.4726 241.164 88.6808 234.949C87.7563 227.694 90.8356 224.287 88.8444 222.724C86.9978 221.275 83.9947 223.926 76.9616 225.384C73.7435 226.051 71.7875 226.032 65.7464 226.094C42.2207 226.335 41.4362 226.941 37.6077 225.636C35.9326 225.066 24.0437 221.013 23.4408 214.22C22.4974 203.59 49.696 191.928 55.8011 196.854Z" fill="#2F2E41"/>
<path d="M104.227 268.245C105.405 268.452 106.782 268.694 107.862 267.835C108.592 267.254 109.077 266.255 109.029 265.305C108.973 264.208 108.226 263.562 108.346 263.456C108.529 263.295 110.395 264.673 111.996 266.845C112.298 267.255 113.652 269.134 114.729 272.474C115.592 275.151 115.15 275.27 115.74 276.876C117.551 281.806 122.22 282.056 122.518 285.728C122.632 287.146 122.063 288.661 121.037 289.504C118.978 291.196 115.453 289.867 113.541 289.119C108.937 287.317 106.418 284.53 103.625 281.86C94.1271 272.78 86.9844 270.338 87.864 267.307C88.0305 266.734 88.2513 266.942 91.4201 264.054C94.5476 261.203 95.1556 260.25 96.0357 260.449C97.3606 260.748 96.7958 263.092 98.9979 265.518C100.949 267.668 103.464 268.111 104.227 268.245Z" fill="#2F2E41"/>
<path d="M25.4252 124.314C25.986 122.309 25.2816 121.578 25.9996 120.678C25.9996 120.678 26.2885 120.316 28.8715 119.339C28.1094 114.919 28.6801 114.172 28.6801 114.172C29.3377 113.31 30.6551 113.102 31.552 113.215C33.4489 113.453 33.7846 115.167 34.9983 115.129C36.675 115.075 38.6859 111.721 38.0617 108.814C37.5526 106.442 35.3572 104.681 34.8069 104.986C34.2612 105.289 32.297 103.953 31.552 104.221C31.0433 104.404 28.6487 104.16 28.1057 104.412C27.5127 104.687 25.8146 106.399 25.6523 106.183C24.524 104.684 24.5481 104.161 23.8935 103.838C22.7336 103.266 21.4727 104.324 19.2984 105.369C14.8248 107.52 13.5148 106.237 11.4484 108.048C10.4046 108.963 9.84484 110.712 8.76795 114.172C7.26192 119.011 6.50891 121.43 7.23625 123.74C7.978 126.096 9.07032 125.583 10.6826 128.907C12.4773 132.607 11.8587 134.757 13.5545 135.605C14.8652 136.259 16.9714 135.843 17.7667 134.648C19.1283 132.602 15.6091 129.834 16.8094 126.61C17.5462 124.631 19.8191 123.131 21.213 123.549C22.7891 124.021 22.9052 126.845 23.8935 126.802C24.7399 126.764 25.3275 124.663 25.4252 124.314Z" fill="#2F2E41"/>
<path d="M14.5118 138.092C17.4598 134.789 29.4676 138.208 30.5947 143.45C31.0583 145.607 29.3469 146.517 29.8288 149C30.5337 152.631 34.5249 152.384 37.4873 156.08C41.6932 161.329 37.3603 166.459 42.0824 175.217C43.0915 177.088 43.942 178.666 45.7202 180.192C49.8009 183.695 53.5985 182.494 55.6763 185.742C57.2301 188.171 56.5917 191.164 56.4422 191.866C55.8289 194.741 54.1669 195.442 52.9958 197.798C51.0474 201.718 53.2535 204.596 53.3788 209.28C53.5355 215.14 50.4197 223.263 44.1885 225.928C37.1881 228.923 28.745 223.963 24.6593 219.039C22.2214 216.101 21.5137 213.391 20.4472 210.045C15.6805 195.094 12.9875 196.446 9.34232 184.594C5.17517 171.045 4.35596 155.171 9.34232 150.148C10.0032 149.482 11.8221 147.944 12.9801 145.173C14.5384 141.444 13.1922 139.571 14.5118 138.092Z" fill="#6C63FF"/>
<path d="M58.0713 214.998C60.3569 217.9 60.7112 221.432 58.8628 222.885C57.0144 224.339 53.6639 223.164 51.3778 220.26C50.4487 219.113 49.8081 217.76 49.5095 216.314L39.9807 203.894L44.9044 200.14L54.6719 212.254C56.008 212.884 57.1737 213.825 58.0713 214.998Z" fill="#FFB6B6"/>
<path d="M23.1735 150.683C23.5975 150.588 27.3074 149.82 30.224 152.076C33.5744 154.667 33.4121 159.343 33.3552 160.983C33.2237 164.771 31.7384 165.389 30.8548 169.105C29.2016 176.057 32.3499 182.518 34.0893 186.088C34.6914 187.323 36.6257 191.104 40.476 195.175C47.9644 203.094 54.6461 207.261 54.6461 207.261L47.4681 213.638C47.4681 213.638 36.0345 210.155 28.2871 203.177C20.3401 196.018 8.11892 170.691 5.58545 164.521C5.36727 163.99 8.45778 172.628 14.3587 159.974C15.7047 157.088 18.1708 151.799 23.1735 150.683Z" fill="#6C63FF"/>
<path d="M206.886 144.742L198.315 140.684C201.83 145.588 204.859 153.245 206.481 159.338C209.226 153.662 213.652 146.717 218.033 142.569L208.976 144.898C214.557 117.558 235.55 97.93 259.59 97.93L259.93 96.9425C234.82 96.9425 212.584 116.298 206.886 144.742Z" fill="#3F3D56"/>
<path d="M246.331 186.4H192.181C189.884 186.4 188.015 184.532 188.015 182.237C188.015 179.941 189.884 178.073 192.181 178.073H246.331C248.628 178.073 250.497 179.941 250.497 182.237C250.497 184.532 248.628 186.4 246.331 186.4Z" fill="#6C63FF"/>
<path d="M318.385 186.4H264.235C261.938 186.4 260.069 184.532 260.069 182.237C260.069 179.941 261.938 178.073 264.235 178.073H318.385C320.682 178.073 322.551 179.941 322.551 182.237C322.551 184.532 320.682 186.4 318.385 186.4Z" fill="#E6E6E6"/>
<path d="M286.329 73.1414H233.692C232.365 73.1414 231.285 72.0622 231.285 70.7359C231.285 69.4096 232.365 68.3308 233.692 68.3308H286.329C287.656 68.3308 288.735 69.4096 288.735 70.7359C288.735 72.0622 287.656 73.1414 286.329 73.1414Z" fill="#3F3D56"/>
<path d="M314.574 98.8044H205.446C204.119 98.8044 203.04 97.7252 203.04 96.3989C203.04 95.0725 204.119 93.9938 205.446 93.9938H314.574C315.901 93.9938 316.981 95.0725 316.981 96.3989C316.981 97.7252 315.901 98.8044 314.574 98.8044Z" fill="#3F3D56"/>
<path d="M107.668 145.538C107.575 145.538 107.483 145.534 107.389 145.528C101.907 145.177 83.1498 142.524 71.9516 123.172C71.0288 121.578 71.2106 119.553 72.4037 118.132L93.1423 93.4352C93.9903 92.4252 95.3004 91.8433 96.6273 91.8593C97.5443 91.8812 99.7155 92.1127 100.137 93.7856C102.629 103.669 113.148 115.291 125.8 116.831C127.082 116.987 128.112 118.13 128.554 119.889C128.898 121.259 128.58 122.671 127.679 123.763L111.066 143.926C110.222 144.95 108.984 145.538 107.668 145.538ZM96.5476 92.8528C95.5342 92.8528 94.5485 93.3066 93.9041 94.0739L73.1658 118.77C72.2403 119.872 72.0985 121.441 72.8123 122.674C83.7636 141.599 102.096 144.192 107.453 144.536C108.547 144.61 109.598 144.144 110.298 143.294L126.912 123.131C127.609 122.285 127.856 121.192 127.589 120.132C127.328 119.094 126.69 117.94 125.679 117.817C112.61 116.226 101.745 104.23 99.1729 94.0283C98.9646 93.2022 97.7106 92.8795 96.6066 92.8533C96.587 92.8528 96.5673 92.8528 96.5476 92.8528Z" fill="#3F3D56"/>
<path d="M84.5192 123.985L99.4708 108.748C100.493 107.706 98.8917 106.103 97.8683 107.146L82.9168 122.383C81.8947 123.424 83.4959 125.027 84.5192 123.985Z" fill="#E6E6E6"/>
<path d="M93.5434 128.277C97.6699 124.581 101.256 120.3 104.192 115.604C104.967 114.364 103.007 113.226 102.235 114.461C99.3964 119.001 95.9298 123.102 91.9409 126.676C90.8526 127.651 92.4597 129.248 93.5434 128.277Z" fill="#E6E6E6"/>
<path d="M101.677 133.417C105.434 129.258 108.632 124.615 111.149 119.608C111.803 118.309 109.848 117.16 109.193 118.465C106.76 123.303 103.705 127.796 100.074 131.816C99.099 132.895 100.697 134.502 101.677 133.417Z" fill="#E6E6E6"/>
<path d="M95.2709 105.986C103.596 105.986 110.345 99.3828 110.345 91.2372C110.345 83.0916 103.596 76.4883 95.2709 76.4883C86.9457 76.4883 80.1967 83.0916 80.1967 91.2372C80.1967 99.3828 86.9457 105.986 95.2709 105.986Z" fill="#6C63FF"/>
<path d="M103.114 98.2335C100.796 92.5364 98.4777 86.8395 96.1594 81.1425C95.8392 80.3556 94.8361 80.3277 94.5236 81.1425C92.233 87.1153 90.7361 93.3477 90.0164 99.7023C89.8939 100.785 91.5912 100.776 91.7127 99.7023C91.9944 97.2156 92.4124 94.7476 92.9492 92.3058C94.8595 92.406 96.7855 92.1918 98.6291 91.6817C99.5789 94.0158 100.529 96.35 101.479 98.6842C101.885 99.6816 103.526 99.2454 103.114 98.2335ZM93.3338 90.6297C93.9052 88.2922 94.5901 85.9824 95.3849 83.7097L97.9848 90.0984C96.462 90.4979 94.9047 90.6756 93.3338 90.6297Z" fill="white"/>
</svg>
