<svg width="440" height="287" viewBox="0 0 440 287" fill="none" xmlns="http://www.w3.org/2000/svg">
<g clip-path="url(#clip0_67_996)">
<path d="M405.965 138.585H49.1732C44.3908 138.585 40.5001 134.71 40.5001 129.946V8.63831C40.5001 3.87512 44.3908 0 49.1732 0H405.965C410.747 0 414.638 3.87512 414.638 8.63831V129.946C414.638 134.71 410.747 138.585 405.965 138.585ZM49.1732 1.02988C44.9611 1.02988 41.5341 4.44312 41.5341 8.63831V129.946C41.5341 134.142 44.9611 137.555 49.1732 137.555H405.965C410.177 137.555 413.604 134.142 413.604 129.946V8.63831C413.604 4.44312 410.177 1.02988 405.965 1.02988H49.1732Z" fill="#3F3D56"/>
<path d="M440 283.504H0V284.37H440V283.504Z" fill="#E6E6E6"/>
<path d="M440 239.219H0V240.086H440V239.219Z" fill="#E6E6E6"/>
<path d="M200.52 143.046C200.836 147.001 203.141 150.044 205.668 149.844C208.195 149.643 209.987 146.275 209.67 142.319C209.565 140.737 209.082 139.203 208.26 137.845L206.709 121.105L198.837 121.998L201.202 138.405C200.606 139.876 200.372 141.467 200.52 143.046Z" fill="#FFB6B6"/>
<path d="M191.117 64.9509C191.117 64.9509 198.475 61.0714 202.206 66.8688C205.937 72.6663 208.512 135.367 208.512 135.367L198.171 136.466L196.211 92.2831L191.117 64.9509Z" fill="#E6E6E6"/>
<path d="M175.845 235.947L181.836 235.947L184.686 212.932L175.844 212.932L175.845 235.947Z" fill="#FFB6B6"/>
<path d="M196.371 235.812C196.557 236.125 196.655 237.135 196.655 237.499C196.655 238.617 195.745 239.524 194.622 239.524H176.069C175.303 239.524 174.682 238.905 174.682 238.142V237.373C174.682 237.373 173.764 235.061 175.654 232.211C175.654 232.211 178.002 234.443 181.512 230.947L182.546 229.08L190.037 234.537L194.189 235.046C195.098 235.157 195.903 235.028 196.371 235.812Z" fill="#2F2E41"/>
<path d="M210.513 234.96L216.318 233.482L213.36 210.481L204.793 212.661L210.513 234.96Z" fill="#FFB6B6"/>
<path d="M230.367 229.769C230.625 230.026 230.971 230.98 231.062 231.333C231.34 232.416 230.683 233.519 229.595 233.796L211.619 238.37C210.877 238.558 210.122 238.112 209.932 237.373L209.741 236.628C209.741 236.628 208.277 234.614 209.4 231.387C209.4 231.387 212.23 232.97 214.761 228.718L215.3 226.654L223.914 230.094L228.063 229.564C228.971 229.448 229.719 229.125 230.367 229.769Z" fill="#2F2E41"/>
<path d="M170.889 60.0034L170.605 57.9503L173.981 49.7381L183.257 48.7115L185.26 60.4684L170.889 60.0034Z" fill="#FFB6B6"/>
<path opacity="0.1" d="M170.889 60.0034L170.605 57.9503L173.981 49.7381L183.257 48.7115L185.26 60.4684L170.889 60.0034Z" fill="black"/>
<path d="M160.067 118.002L155.944 129.294L159.036 135.453L174.496 224.762H184.774L182.741 145.719L206.447 224.762H216.62L208.439 171.382L202.324 122.109L198.615 119.826L180.68 109.79L160.067 118.002Z" fill="#2F2E41"/>
<path d="M186.349 125.701L180.165 126.728L171.919 107.224H190.471L186.349 125.701Z" fill="#E6E6E6"/>
<path d="M198.717 120.569L186.349 125.701L182.226 116.463L180.165 126.728L158.521 119.788L161.613 107.224L158.521 66.1626L169.435 58.9152L170.889 57.9503L184.287 58.9768L185.462 59.6133L193.563 64.1095L195.625 97.985L198.717 120.569Z" fill="#2F2E41"/>
<path d="M185.462 59.6133L179.649 84.1268L169.435 58.9152L170.889 57.9503L184.287 58.9768L185.462 59.6133Z" fill="#E6E6E6"/>
<path d="M175.527 57.9503L173.465 61.4861L175.527 62.6648L174.496 84.1906L178.619 89.7728L182.741 81.5225L179.649 62.6648L180.68 57.9503H175.527Z" fill="#2F2E41"/>
<path d="M178.619 55.8973C184.026 55.8973 188.41 51.5311 188.41 46.1452C188.41 40.7593 184.026 36.3932 178.619 36.3932C173.211 36.3932 168.827 40.7593 168.827 46.1452C168.827 51.5311 173.211 55.8973 178.619 55.8973Z" fill="#FFB6B6"/>
<path d="M172.361 47.0007L174.477 47.9203L175.4 42.4027C175.4 42.4027 179.093 40.5635 181.863 41.4831C184.633 42.4027 189.25 41.4831 189.25 41.4831C189.25 41.4831 189.25 32.2871 182.787 32.2871C176.324 32.2871 169.86 33.2067 169.86 35.9655C169.86 38.7243 167.09 41.4831 167.09 41.4831C167.09 41.4831 163.397 47.0007 167.09 50.6791C170.784 54.3575 172.63 54.3575 172.63 54.3575L172.361 47.0007Z" fill="#2F2E41"/>
<path d="M153.362 142.758C153.255 146.724 155.223 149.993 157.757 150.061C160.291 150.129 162.431 146.969 162.538 143.002C162.603 141.417 162.285 139.841 161.613 138.404L161.854 121.595L153.932 121.65L154.535 138.215C153.785 139.614 153.383 141.172 153.362 142.758Z" fill="#FFB6B6"/>
<path d="M163.164 64.0903C163.164 64.0903 156.464 62.0373 153.372 68.1965C150.28 74.3556 154.403 136.974 154.403 136.974H164.803L162.043 92.8332L163.164 64.0903Z" fill="#E6E6E6"/>
<path d="M420.158 180.748L395.175 173.131C394.623 172.962 394.043 172.901 393.467 172.95L266.848 183.682C265.043 183.835 264.589 186.261 266.218 187.051L270.274 189.019H270.166V283.228H273.988V190.821L286.699 196.989C287.671 197.461 288.757 197.653 289.833 197.545L291.186 197.409V283.228H295.007V197.024L392.941 187.172V283.228H396.763V186.787L413.005 185.153V283.228H416.827V184.769L419.79 184.471C421.871 184.261 422.158 181.358 420.158 180.748Z" fill="#3F3D56"/>
<path d="M303.606 183.309C305.995 183.309 341.347 179.027 341.347 179.027L346.602 186.164L309.817 193.301L303.606 183.309Z" fill="white"/>
<path d="M342.405 279.569L336.263 279.558L333.382 255.958L342.447 255.974L342.405 279.569Z" fill="#A0616A"/>
<path d="M321.363 279.395C321.171 279.715 321.068 280.75 321.068 281.123C321.066 282.27 321.997 283.201 323.149 283.203L342.169 283.235C342.955 283.237 343.592 282.604 343.594 281.822L343.595 281.033C343.595 281.033 344.54 278.664 342.608 275.739C342.608 275.739 340.196 278.023 336.605 274.433L335.547 272.517L327.858 278.098L323.6 278.613C322.669 278.725 321.843 278.592 321.363 279.395Z" fill="#2F2E41"/>
<path d="M375.369 268.595L370.523 272.235L354.119 255.352L361.271 249.979L375.369 268.595Z" fill="#A0616A"/>
<path d="M358.685 280.959C358.726 281.325 359.265 282.202 359.488 282.496C360.173 283.401 361.465 283.581 362.373 282.899L377.379 271.624C377.999 271.158 378.122 270.281 377.655 269.663L377.183 269.041C377.183 269.041 376.509 266.613 373.235 265.456C373.235 265.456 372.703 268.689 367.723 267.994L365.742 267.113L363.026 276.078L359.979 279.013C359.313 279.655 358.583 280.041 358.685 280.959Z" fill="#2F2E41"/>
<path d="M362.533 146.624C362.533 152.265 357.942 156.838 352.278 156.838C346.614 156.838 342.023 152.265 342.023 146.624C342.023 140.983 346.614 136.41 352.278 136.41C357.942 136.41 362.533 140.983 362.533 146.624Z" fill="#A0616A"/>
<path d="M361.567 205.516C361.567 205.516 323.808 203.387 321.671 207.645C319.534 211.902 333.225 270.381 333.225 270.381L345.441 267.832L339.482 226.803C339.482 226.803 370.99 235.114 375.265 225.18C379.54 215.246 378.309 211.547 378.309 211.547L361.567 205.516Z" fill="#2F2E41"/>
<path d="M371.241 198.37C371.241 198.37 334.262 206.265 333.332 210.934C332.401 215.603 361.138 268.391 361.138 268.391L372.241 262.714L355.596 224.717C355.596 224.717 388.19 224.43 389.674 213.724C391.158 203.018 388.989 199.775 388.989 199.775L371.241 198.37Z" fill="#2F2E41"/>
<path d="M375.459 158.33H357.693L345.537 178.198C345.537 178.198 342.688 191.037 345.537 192.422C348.387 193.808 348.387 208.709 348.387 208.709L378.309 211.547C378.309 211.547 382.584 166.845 381.159 162.587C379.734 158.33 375.459 158.33 375.459 158.33Z" fill="#6C63FF"/>
<path d="M347.318 171.457L345.537 192.422L325.504 183.954L320.723 181.559C319.786 180.343 318.571 179.368 317.179 178.715C313.716 177.035 310.04 177.451 308.966 179.645C307.893 181.839 309.828 184.98 313.29 186.659C314.664 187.35 316.185 187.702 317.724 187.687L331.714 195.601L331.73 195.57L331.792 195.68L353.73 204.806L358.778 177.283L347.318 171.457Z" fill="#A0616A"/>
<path d="M345.181 148.041C345.181 148.041 334.495 149.46 338.769 140.236C338.769 140.236 338.117 135.235 341.293 134.897C344.469 134.559 348.743 128.883 348.743 128.883C348.743 128.883 358.543 123.916 363.617 128.883C368.691 133.85 383.652 162.942 383.652 162.942L373.678 173.585C373.678 173.585 367.682 157.886 360.706 159.704C353.73 161.523 347.318 166.945 347.318 166.945C347.318 166.945 340.239 163.416 343.422 160.341C346.606 157.265 345.181 148.041 345.181 148.041Z" fill="#2F2E41"/>
<path d="M359.43 163.651C359.43 163.651 354.443 157.265 350.88 162.232C347.318 167.199 344.469 173.585 344.469 173.585L358.717 178.552L359.43 163.651Z" fill="#6C63FF"/>
<path d="M413.53 281.816L396.975 229.41L396.978 229.41H397.016L396.949 229.324L396.947 229.322L395.768 225.59L395.769 225.589C397.565 224.048 398.788 221.845 399.032 219.309L391.465 177.857C391.985 172.413 387.796 167.655 382.307 167.46L365.233 167.418C360.379 167.246 356.175 170.739 355.468 175.525L355.091 178.066L349.86 213.509C349.669 214.784 349.745 216.04 350.046 217.215L346.282 217.705L345.14 217.857L340.625 218.443L340.611 218.447L340.047 218.519H339.436V233.745H339.474V282.41C339.474 282.724 339.732 282.981 340.047 282.981C340.367 282.981 340.625 282.724 340.625 282.41V233.745H347.323L354.006 282.353C354.049 282.638 354.293 282.847 354.58 282.847C354.603 282.847 354.632 282.847 354.656 282.843C354.971 282.8 355.191 282.51 355.148 282.196L348.489 233.745H380.625C383.816 233.745 386.773 232.736 389.18 231.009L401.922 282.263C401.988 282.523 402.222 282.695 402.479 282.695C402.526 282.695 402.574 282.69 402.622 282.678C402.93 282.599 403.116 282.287 403.037 281.981L390.173 230.231C390.344 230.089 390.515 229.937 390.676 229.781L395.791 229.481L412.432 282.16C412.509 282.404 412.736 282.561 412.981 282.561C413.038 282.561 413.096 282.552 413.153 282.535C413.457 282.439 413.625 282.118 413.53 281.816ZM394.675 226.403C394.718 226.379 394.756 226.351 394.794 226.327L394.918 226.716L394.675 226.403Z" fill="#E6E6E6"/>
<path d="M88.7023 192.986L99.8436 185.93L104.373 188.651L88.7023 206.585V192.986Z" fill="#FFB6B6"/>
<path d="M73.4669 165.673C73.4669 165.673 66.0668 167.407 69.5492 177.379C73.0316 187.35 84.3494 208.161 87.8318 206.86C91.3141 205.559 91.7494 192.553 91.7494 192.553C91.7494 192.553 91.3141 192.986 89.573 191.252C87.8318 189.518 87.8318 190.31 87.8318 188.397C87.8318 186.483 86.4076 185.065 86.4076 185.065L84.7847 181.714C84.7847 181.714 84.7847 166.106 78.2552 165.239C71.7257 164.372 73.4669 165.673 73.4669 165.673Z" fill="#E6E6E6"/>
<path d="M108.04 188.185C110.93 185.306 111.826 181.532 110.041 179.754C108.256 177.976 104.466 178.868 101.576 181.747C98.6865 184.625 97.7908 188.4 99.5757 190.177C101.361 191.955 105.15 191.063 108.04 188.185Z" fill="#FFB6B6"/>
<path d="M44.6435 223.118L52.2458 235.651L96.5487 233.04L84.7521 217.896L44.6435 223.118Z" fill="#E6E6E6"/>
<path d="M57.8813 281.734C57.6233 281.734 57.3985 281.544 57.3625 281.282L44.1241 184.985C44.0848 184.699 44.2855 184.436 44.5723 184.397C44.8591 184.356 45.1235 184.557 45.1629 184.843L58.4014 281.141C58.4407 281.426 58.24 281.69 57.9531 281.729C57.9289 281.732 57.905 281.734 57.8813 281.734Z" fill="#E6E6E6"/>
<path d="M44.6435 281.856C44.354 281.856 44.1192 281.622 44.1192 281.334V184.933C44.1192 184.644 44.354 184.411 44.6435 184.411C44.9331 184.411 45.1678 184.644 45.1678 184.933V281.334C45.1678 281.622 44.9331 281.856 44.6435 281.856Z" fill="#E6E6E6"/>
<path d="M111.098 281.473C110.875 281.473 110.668 281.33 110.598 281.107L79.2712 181.938C79.1843 181.663 79.3377 181.37 79.614 181.283C79.8901 181.197 80.1846 181.349 80.2714 181.624L111.598 280.794C111.685 281.069 111.531 281.362 111.255 281.449C111.203 281.465 111.15 281.473 111.098 281.473Z" fill="#E6E6E6"/>
<path d="M101.529 281.595C101.295 281.595 101.082 281.438 101.021 281.202L79.2631 193.678C79.1918 193.398 79.3614 193.114 79.642 193.043C79.9235 192.972 80.208 193.141 80.2794 193.42L102.038 280.944C102.109 281.223 101.939 281.508 101.659 281.579C101.615 281.59 101.572 281.595 101.529 281.595Z" fill="#E6E6E6"/>
<path d="M44.6435 186.468L80.9509 185.912L87.6357 223.901H45.1678L44.6435 186.468Z" fill="#E6E6E6"/>
<path d="M100.439 242.329L91.2888 258.374L101.913 260.703L106.342 249.291L100.439 242.329Z" fill="#FFB6B6"/>
<path d="M94.5753 255.344C94.5753 255.344 94.2198 252.728 92.1295 253.558C90.0392 254.388 84.0065 257.474 84.0065 257.474C84.0065 257.474 99.7412 282.938 102.727 281.752C105.713 280.566 102.139 273.368 102.139 273.368L102.928 260.645L94.5753 255.344Z" fill="#2F2E41"/>
<path d="M59.9726 211.195C59.9726 211.195 56.7079 226.153 66.7198 231.355C76.7316 236.558 110.903 223.768 110.903 223.768L95.2318 247.154L106.114 251.515C106.114 251.515 130.926 218.999 129.185 213.797C127.444 208.594 115.691 208.161 115.691 208.161L89.1376 209.461L82.1728 207.293L59.9726 211.195Z" fill="#2F2E41"/>
<path d="M86.9022 249.45L72.5174 261.078L81.562 267.098L89.8569 258.074L86.9022 249.45Z" fill="#FFB6B6"/>
<path d="M76.6853 259.448C76.6853 259.448 77.3101 256.882 75.0597 256.898C72.8094 256.914 66.0628 257.601 66.0628 257.601C66.0628 257.601 71.4155 287.023 74.6303 287C77.8451 286.977 77.1453 278.977 77.1453 278.977L82.5287 267.412L76.6853 259.448Z" fill="#2F2E41"/>
<path d="M60.5847 205.785C60.5847 205.785 52.0791 218.534 59.5038 227.008C66.9285 235.483 103.43 235.954 103.43 235.954L80.289 252.057L88.8321 260.063C88.8321 260.063 123.823 238.769 124.102 233.292C124.381 227.815 113.592 223.152 113.592 223.152L88.3839 214.74L82.6886 210.196L60.5847 205.785Z" fill="#2F2E41"/>
<path d="M82.4351 176.256C82.4351 176.256 74.1644 173.221 70.2467 173.221C69.8724 173.221 69.5024 173.264 69.1324 173.342C66.625 173.871 64.318 176.017 63.2123 177.188C62.7814 177.647 62.5333 177.955 62.5333 177.955C62.5333 177.955 62.5594 177.656 62.6116 177.132C62.8684 174.374 63.8174 165.326 65.5194 159.534C66.1288 157.466 66.8296 155.814 67.6349 155.012C69.5111 153.139 70.3773 150.893 70.7778 149.22C71.1173 147.785 71.1173 146.774 71.1173 146.774L67.944 145.413L67.3563 141.589C67.2519 142.04 66.7687 142.92 65.145 144.607C65.0057 144.75 64.8534 144.871 64.6923 144.975C62.3504 146.441 57.5752 143.891 55.0026 142.287C56.0734 138.58 58.0148 135.19 61.5408 134.635C69.8114 133.334 69.8114 128.565 75.035 133.768C75.4659 134.197 75.9012 134.609 76.3365 135.008C78.0081 138.19 78.6175 142.456 78.8351 145.422C78.9919 147.499 78.9527 148.942 78.9527 148.942C78.9527 148.942 81.1292 161.949 84.6116 164.55C88.0939 167.151 82.4351 176.256 82.4351 176.256Z" fill="#2F2E41"/>
<path d="M66.329 155.445L60.4474 164.038L73.7291 167.585V155.445H66.329Z" fill="#FFB6B6"/>
<path opacity="0.1" d="M66.329 155.445L60.4474 164.038L73.7291 167.585V155.445H66.329Z" fill="black"/>
<path d="M74.5551 163.722L61.9315 158.519C61.9315 158.519 44.9548 165.89 46.2607 180.197C47.5666 194.504 59.755 219.216 59.755 219.216L84.1317 208.811L81.5199 181.064L74.5551 163.722Z" fill="#E6E6E6"/>
<path d="M69.1426 159.282C75.2935 159.282 80.2797 154.316 80.2797 148.189C80.2797 142.063 75.2935 137.097 69.1426 137.097C62.9918 137.097 58.0055 142.063 58.0055 148.189C58.0055 154.316 62.9918 159.282 69.1426 159.282Z" fill="#FFB6B6"/>
<path d="M84.1763 144.173C81.9998 146.341 80.2586 148.509 80.2586 148.509L79.388 145.04C79.388 145.04 79.1877 145.188 78.8351 145.422C77.4552 146.358 73.7509 148.712 70.7778 149.22C69.4545 149.445 68.2792 149.302 67.513 148.509C65.8894 146.822 65.4062 145.942 65.3017 145.491L64.7141 149.315L61.5407 150.676C61.5407 150.676 61.5407 155.437 65.0231 158.914C65.1929 159.083 65.3583 159.291 65.5194 159.534C67.1822 162.031 68.3749 168.144 69.1323 173.342C69.8027 177.964 70.1248 181.857 70.1248 181.857C70.1248 181.857 66.8296 177.747 63.2123 177.188C63.0121 177.158 62.8118 177.136 62.6116 177.132C62.5463 177.123 62.4766 177.123 62.4113 177.123C58.4937 177.123 50.223 180.158 50.223 180.158C50.223 180.158 44.5641 171.053 48.0465 168.452C51.5289 165.851 53.7054 152.844 53.7054 152.844C53.7054 152.844 53.5617 147.277 55.0026 142.287C56.0734 138.58 58.0148 135.19 61.5407 134.635C69.8114 133.334 69.8114 128.565 75.035 133.768C75.4659 134.197 75.9012 134.609 76.3365 135.008C81.2032 139.465 86.1743 142.183 84.1763 144.173Z" fill="#2F2E41"/>
<path d="M35.3299 202.371H31.1937V283.732H35.3299V202.371Z" fill="#3F3D56"/>
<path d="M135.631 202.371H131.495V283.732H135.631V202.371Z" fill="#3F3D56"/>
<path d="M109.263 167.87H81.8615V195.162H109.263V167.87Z" fill="#6C63FF"/>
<path d="M66.0668 196.888L77.2081 189.832L81.7376 192.553L66.0668 210.487V196.888Z" fill="#FFB6B6"/>
<path d="M50.8314 169.575C50.8314 169.575 43.4313 171.309 46.9137 181.281C50.3961 191.252 61.7138 212.062 65.1962 210.762C68.6786 209.461 69.1139 196.455 69.1139 196.455C69.1139 196.455 68.6786 196.888 66.9374 195.154C65.1962 193.42 65.1962 194.212 65.1962 192.298C65.1962 190.385 63.7721 188.967 63.7721 188.967L62.1491 185.616C62.1491 185.616 62.1491 170.008 55.6197 169.141C49.0902 168.274 50.8314 169.575 50.8314 169.575Z" fill="#E6E6E6"/>
<path d="M85.4048 192.087C88.2947 189.208 89.1905 185.434 87.4055 183.656C85.6206 181.878 81.8309 182.77 78.941 185.649C76.051 188.527 75.1553 192.302 76.9402 194.079C78.7252 195.857 82.5149 194.965 85.4048 192.087Z" fill="#FFB6B6"/>
<path d="M143.904 199.282H18.7853V208.551H143.904V199.282Z" fill="#3F3D56"/>
<path d="M271.023 125.13H252.545C251.08 125.13 249.892 126.313 249.892 127.772V135.362C249.892 136.821 251.08 138.004 252.545 138.004H271.023C272.488 138.004 273.675 136.821 273.675 135.362V127.772C273.675 126.313 272.488 125.13 271.023 125.13Z" fill="#3F3D56"/>
<path d="M309.799 132.721H291.321C289.856 132.721 288.669 133.903 288.669 135.362V135.362C288.669 136.821 289.856 138.004 291.321 138.004H309.799C311.264 138.004 312.452 136.821 312.452 135.362V135.362C312.452 133.903 311.264 132.721 309.799 132.721Z" fill="#6C63FF"/>
</g>
<defs>
<clipPath id="clip0_67_996">
<rect width="440" height="287" fill="white"/>
</clipPath>
</defs>
</svg>
